<svg width="1764" height="756" viewBox="0 0 1764 756" fill="none" xmlns="http://www.w3.org/2000/svg">
<g clip-path="url(#clip0_202_332)">
<path d="M541.923 551.033L530.935 554.739L523.198 531.683L534.187 527.978L541.923 551.033Z" fill="#5BC5C9"/>
<path d="M374.955 525.679L383.502 522.797L389.52 540.729L380.973 543.611L374.955 525.679Z" fill="#5BC5C9"/>
<path d="M330.365 370.71L343.174 369.345L346.028 396.222L333.221 397.588L330.365 370.71Z" fill="#6CCEFF"/>
<path d="M497.736 396.374L508.927 389.98L522.281 413.459L511.092 419.855L497.736 396.374Z" fill="#FFACEA"/>
<path d="M535.383 472.917L524.943 467.865L535.491 445.956L545.929 451.01L535.383 472.917Z" fill="#6CCEFF"/>
<path d="M406.378 438.059L414.201 415.033L425.174 418.778L417.353 441.808L406.378 438.059Z" fill="#FF6E8B"/>
<path d="M272.041 484.923L294.599 475.975L298.863 486.782L276.303 495.731L272.041 484.923Z" fill="#FFACEA"/>
<path d="M465.632 506.233L478.306 503.943L483.085 530.542L470.41 532.833L465.632 506.233Z" fill="#FF6E8B"/>
<path d="M902.867 578.259L891.88 581.963L884.142 558.909L895.132 555.204L902.867 578.259Z" fill="#5BC5C9"/>
<path d="M735.902 552.905L744.447 550.021L750.465 567.953L741.918 570.837L735.902 552.905Z" fill="#5BC5C9"/>
<path d="M655.981 403.561L666.391 395.974L682.301 417.821L671.893 425.41L655.981 403.561Z" fill="#6CCEFF"/>
<path d="M858.68 423.6L869.871 417.204L883.225 440.683L872.036 447.081L858.68 423.6Z" fill="#FFACEA"/>
<path d="M896.328 500.141L885.888 495.089L896.436 473.18L906.876 478.234L896.328 500.141Z" fill="#6CCEFF"/>
<path d="M737.322 495.283L745.146 472.259L756.119 476.004L748.297 499.034L737.322 495.283Z" fill="#FF6E8B"/>
<path d="M632.985 512.147L655.543 503.199L659.807 514.008L637.248 522.956L632.985 512.147Z" fill="#FFACEA"/>
<path d="M826.575 533.457L839.25 531.166L844.03 557.767L831.355 560.058L826.575 533.457Z" fill="#FF6E8B"/>
<path d="M1015.82 618.58L1007.35 610.645L1023.91 592.87L1032.38 600.806L1015.82 618.58Z" fill="#5BC5C9"/>
<path d="M958.793 459.209L965.38 465.381L952.497 479.206L945.91 473.034L958.793 459.209Z" fill="#5BC5C9"/>
<path d="M1103.64 346L1110.92 356.654L1088.69 371.934L1081.41 361.282L1103.64 346Z" fill="#6CCEFF"/>
<path d="M1130.59 506.151L1141.52 512.99L1127.25 535.923L1116.32 529.086L1130.59 506.151Z" fill="#FFACEA"/>
<path d="M1081.28 575.717L1080.76 564.106L1105 563.01L1105.52 574.621L1081.28 575.717Z" fill="#6CCEFF"/>
<path d="M1050.62 445.329L1074.55 441.3L1076.47 452.761L1052.54 456.794L1050.62 445.329Z" fill="#FF6E8B"/>
<path d="M945.696 349.042L964.261 364.699L956.801 373.594L938.234 357.936L945.696 349.042Z" fill="#FFACEA"/>
<path d="M1018.92 529.989L1026.95 540.082L1005.87 556.932L997.838 546.835L1018.92 529.989Z" fill="#FF6E8B"/>
<path d="M1299.25 360.583L1289.7 354.006L1303.42 333.948L1312.98 340.527L1299.25 360.583Z" fill="#5BC5C9"/>
<path d="M1219.1 211.552L1226.54 216.667L1215.86 232.268L1208.43 227.151L1219.1 211.552Z" fill="#5BC5C9"/>
<path d="M1315.82 82.672L1324.61 92.1145L1304.9 110.557L1296.11 101.116L1315.82 82.672Z" fill="#6CCEFF"/>
<path d="M1395.97 232.214L1407.79 237.336L1397.1 262.151L1385.28 257.028L1395.97 232.214Z" fill="#FFACEA"/>
<path d="M1357.59 308.388L1355.34 296.987L1379.14 292.269L1381.39 303.672L1357.59 308.388Z" fill="#6CCEFF"/>
<path d="M1307.83 184.062L1330.88 176.492L1334.49 187.537L1311.44 195.111L1307.83 184.062Z" fill="#FF6E8B"/>
<path d="M1189.73 104.587L1210.42 117.286L1204.37 127.199L1183.67 114.498L1189.73 104.587Z" fill="#FFACEA"/>
<path d="M1289.11 272.523L1298.55 281.3L1280.22 301.119L1270.77 292.339L1289.11 272.523Z" fill="#FF6E8B"/>
<path d="M-12.5715 395.267L-5.23324 386.269L13.5497 401.663L6.21148 410.663L-12.5715 395.267Z" fill="#5BC5C9"/>
<path d="M142.26 327.673L136.552 334.671L121.943 322.697L127.649 315.7L142.26 327.673Z" fill="#5BC5C9"/>
<path d="M262.242 435.105L252.12 443.096L235.444 421.86L245.562 413.871L262.242 435.105Z" fill="#6CCEFF"/>
<path d="M106.903 502.653L100.821 514.038L77.055 501.281L83.1369 489.894L106.903 502.653Z" fill="#FFACEA"/>
<path d="M34.4139 457.924L45.9346 456.632L48.629 480.81L37.1063 482.097L34.4139 457.924Z" fill="#6CCEFF"/>
<path d="M162.143 418.626L167.736 442.295L156.457 444.977L150.861 421.305L162.143 418.626Z" fill="#FF6E8B"/>
<path d="M251.029 307.287L236.676 326.895L227.33 320.02L241.685 300.41L251.029 307.287Z" fill="#FFACEA"/>
<path d="M75.7987 392.505L66.2834 401.207L48.1216 381.232L57.6389 372.531L75.7987 392.505Z" fill="#FF6E8B"/>
<path d="M1744.11 532.61L1751.46 523.612L1770.23 539.007L1762.9 548.004L1744.11 532.61Z" fill="#5BC5C9"/>
<path d="M1399.62 560.593L1388.64 564.3L1380.9 541.244L1391.89 537.539L1399.62 560.593Z" fill="#5BC5C9"/>
<path d="M1232.66 535.24L1241.21 532.358L1247.22 550.289L1238.68 553.171L1232.66 535.24Z" fill="#5BC5C9"/>
<path d="M1188.07 380.271L1200.88 378.905L1203.73 405.783L1190.92 407.149L1188.07 380.271Z" fill="#6CCEFF"/>
<path d="M1355.44 405.935L1366.63 399.541L1379.98 423.02L1368.79 429.416L1355.44 405.935Z" fill="#FFACEA"/>
<path d="M1393.09 482.478L1382.65 477.425L1393.19 455.516L1403.63 460.571L1393.09 482.478Z" fill="#6CCEFF"/>
<path d="M1264.08 447.62L1271.9 424.596L1282.88 428.339L1275.06 451.369L1264.08 447.62Z" fill="#FF6E8B"/>
<path d="M1129.74 494.484L1152.3 485.536L1156.57 496.342L1134.01 505.292L1129.74 494.484Z" fill="#FFACEA"/>
<path d="M1323.33 515.794L1336.01 513.503L1340.79 540.102L1328.11 542.395L1323.33 515.794Z" fill="#FF6E8B"/>
<path d="M914.284 120.999L922.015 112.361L940.138 128.586L932.406 137.225L914.284 120.999Z" fill="#5BC5C9"/>
<path d="M1064.98 221.938L1055.97 222.439L1054.93 203.548L1063.93 203.049L1064.98 221.938Z" fill="#5BC5C9"/>
<path d="M635.997 598.275L623.286 596.174L627.664 569.507L640.371 571.604L635.997 598.275Z" fill="#6CCEFF"/>
<path d="M912.321 313.841L899.835 317.021L893.192 290.827L905.676 287.643L912.321 313.841Z" fill="#FFACEA"/>
<path d="M896.334 230.017L905.056 237.671L889.078 255.977L880.355 248.321L896.334 230.017Z" fill="#6CCEFF"/>
<path d="M1011.45 298.023L997.794 318.133L988.211 311.594L1001.86 291.482L1011.45 298.023Z" fill="#FF6E8B"/>
<path d="M1153.38 288.674L1129.26 291.284L1128.01 279.728L1152.13 277.119L1153.38 288.674Z" fill="#FFACEA"/>
<path d="M972.411 216.503L959.586 215.331L962.034 188.414L974.861 189.585L972.411 216.503Z" fill="#FF6E8B"/>
<path d="M1716.15 443.679L1727.13 447.386L1734.86 424.329L1723.88 420.624L1716.15 443.679Z" fill="#5BC5C9"/>
<path d="M1760.33 289.021L1749.14 282.626L1735.78 306.105L1746.96 312.502L1760.33 289.021Z" fill="#FFACEA"/>
<path d="M1722.68 365.564L1733.12 360.511L1722.58 338.602L1712.13 343.657L1722.68 365.564Z" fill="#6CCEFF"/>
<path d="M1038.58 150.622L1049.57 154.329L1057.31 131.272L1046.32 127.567L1038.58 150.622Z" fill="#5BC5C9"/>
<path d="M187.388 710.068L178.841 707.187L172.825 725.118L181.372 728L187.388 710.068Z" fill="#5BC5C9"/>
<path d="M231.98 555.1L219.171 553.734L216.317 580.612L229.124 581.977L231.98 555.1Z" fill="#6CCEFF"/>
<path d="M64.6096 580.764L53.4185 574.367L40.0644 597.846L51.2534 604.245L64.6096 580.764Z" fill="#FFACEA"/>
<path d="M1045.12 72.5068L1055.56 67.4541L1045.01 45.5452L1034.58 50.5998L1045.12 72.5068Z" fill="#6CCEFF"/>
<path d="M152.816 649.222L144.992 626.198L134.019 629.943L141.841 652.973L152.816 649.222Z" fill="#FF6E8B"/>
<path d="M290.304 669.313L267.747 660.365L263.482 671.171L286.042 680.119L290.304 669.313Z" fill="#FFACEA"/>
<path d="M680.45 87.094L667.641 85.7281L664.787 112.606L677.594 113.971L680.45 87.094Z" fill="#6CCEFF"/>
<path d="M555.944 88.584L533.386 79.6362L529.122 90.4425L551.682 99.3903L555.944 88.584Z" fill="#FFACEA"/>
<path d="M1114.87 105.823L1102.2 103.532L1097.42 130.133L1110.09 132.424L1114.87 105.823Z" fill="#FF6E8B"/>
<path d="M1652.18 700.732L1663.16 704.439L1670.9 681.383L1659.91 677.678L1652.18 700.732Z" fill="#5BC5C9"/>
<path d="M523.475 707.393L514.929 704.511L508.913 722.441L517.459 725.324L523.475 707.393Z" fill="#5BC5C9"/>
<path d="M536.798 582.424L523.989 581.058L521.134 607.934L533.941 609.301L536.798 582.424Z" fill="#6CCEFF"/>
<path d="M369.425 608.088L358.234 601.691L344.882 625.17L356.071 631.567L369.425 608.088Z" fill="#FFACEA"/>
<path d="M1658.72 622.617L1669.16 617.564L1658.61 595.655L1648.17 600.71L1658.72 622.617Z" fill="#6CCEFF"/>
<path d="M457.633 676.546L449.808 653.52L438.834 657.265L446.656 680.295L457.633 676.546Z" fill="#FF6E8B"/>
<path d="M570.597 684.341L548.039 675.393L543.774 686.199L566.334 695.147L570.597 684.341Z" fill="#FFACEA"/>
<path d="M1404.41 624.91L1391.6 623.544L1388.75 650.42L1401.55 651.786L1404.41 624.91Z" fill="#6CCEFF"/>
<path d="M1279.9 626.398L1257.34 617.45L1253.08 628.258L1275.64 637.206L1279.9 626.398Z" fill="#FFACEA"/>
<path d="M1728.47 655.933L1715.79 653.642L1711.01 680.243L1723.7 682.534L1728.47 655.933Z" fill="#FF6E8B"/>
<path d="M1529.86 601.848L1520.3 595.271L1534.03 575.212L1543.59 581.791L1529.86 601.848Z" fill="#5BC5C9"/>
<path d="M1449.71 452.817L1457.14 457.932L1446.47 473.532L1439.03 468.417L1449.71 452.817Z" fill="#5BC5C9"/>
<path d="M1546.42 323.937L1555.21 333.379L1535.51 351.821L1526.72 342.381L1546.42 323.937Z" fill="#6CCEFF"/>
<path d="M1626.57 473.478L1638.4 478.601L1627.71 503.414L1615.89 498.295L1626.57 473.478Z" fill="#FFACEA"/>
<path d="M1588.2 549.653L1585.95 538.252L1609.75 533.533L1612 544.938L1588.2 549.653Z" fill="#6CCEFF"/>
<path d="M1538.44 425.327L1561.49 417.757L1565.1 428.801L1542.04 436.377L1538.44 425.327Z" fill="#FF6E8B"/>
<path d="M1420.33 345.852L1441.02 358.548L1434.97 368.462L1414.28 355.763L1420.33 345.852Z" fill="#FFACEA"/>
<path d="M1519.71 513.785L1529.16 522.565L1510.83 542.385L1501.38 533.603L1519.71 513.785Z" fill="#FF6E8B"/>
<path d="M1747.13 152.723L1769.67 143.775L1773.95 154.583L1751.38 163.531L1747.13 152.723Z" fill="#FFACEA"/>
<path d="M1611.08 332.49L1600.34 328.098L1609.51 305.578L1620.25 309.97L1611.08 332.49Z" fill="#5BC5C9"/>
<path d="M1501.22 203.924L1509.56 207.341L1502.43 224.858L1494.08 221.441L1501.22 203.924Z" fill="#5BC5C9"/>
<path d="M1568.45 57.4067L1579.04 64.7624L1563.68 86.9778L1553.1 79.6221L1568.45 57.4067Z" fill="#6CCEFF"/>
<path d="M1678.42 186.471L1691.06 188.96L1685.87 215.481L1673.23 212.994L1678.42 186.471Z" fill="#FFACEA"/>
<path d="M1657.03 269.074L1652.42 258.41L1674.69 248.733L1679.29 259.399L1657.03 269.074Z" fill="#6CCEFF"/>
<path d="M1582.1 158.18L1603.03 145.876L1608.89 155.899L1587.96 168.207L1582.1 158.18Z" fill="#FF6E8B"/>
<path d="M1449.87 105.659L1472.78 113.661L1468.97 124.636L1446.06 116.631L1449.87 105.659Z" fill="#FFACEA"/>
<path d="M1582.52 248.601L1593.61 255.17L1579.89 278.437L1568.81 271.868L1582.52 248.601Z" fill="#FF6E8B"/>
<path d="M559.625 315.672L570.612 319.379L578.348 296.322L567.361 292.617L559.625 315.672Z" fill="#5BC5C9"/>
<path d="M726.59 290.318L718.044 287.436L712.028 305.368L720.572 308.25L726.59 290.318Z" fill="#5BC5C9"/>
<path d="M771.183 135.352L758.374 133.984L755.52 160.861L768.327 162.227L771.183 135.352Z" fill="#6CCEFF"/>
<path d="M603.81 161.016L592.619 154.619L579.267 178.098L590.456 184.495L603.81 161.016Z" fill="#FFACEA"/>
<path d="M566.164 237.557L576.604 232.504L566.057 210.595L555.616 215.65L566.164 237.557Z" fill="#6CCEFF"/>
<path d="M695.17 202.699L687.347 179.672L676.373 183.419L684.195 206.447L695.17 202.699Z" fill="#FF6E8B"/>
<path d="M829.507 249.562L806.949 240.615L802.685 251.423L825.245 260.371L829.507 249.562Z" fill="#FFACEA"/>
<path d="M635.915 270.873L623.242 268.581L618.461 295.181L631.138 297.472L635.915 270.873Z" fill="#FF6E8B"/>
<path d="M311.221 111.558L309.914 121.94L331.583 124.68L332.888 114.298L311.221 111.558Z" fill="#5BC5C9"/>
<path d="M363.261 254.771L364.276 246.697L347.422 244.566L346.408 252.639L363.261 254.771Z" fill="#5BC5C9"/>
<path d="M507.587 266.635L506.508 255.058L482.346 257.317L483.423 268.892L507.587 266.635Z" fill="#6CCEFF"/>
<path d="M455.201 123.118L458.838 112.077L435.797 104.443L432.157 115.482L455.201 123.118Z" fill="#FFACEA"/>
<path d="M381.133 103.438L387.439 111.773L404.844 98.5411L398.536 90.204L381.133 103.438Z" fill="#6CCEFF"/>
<path d="M434.782 211.372L453.653 200.35L448.402 191.308L429.527 202.326L434.782 211.372Z" fill="#FF6E8B"/>
<path d="M417.453 338.574L421.312 317.022L411.041 315.173L407.183 336.726L417.453 338.574Z" fill="#FFACEA"/>
<path d="M364.232 171.081L363.992 159.462L339.728 159.966L339.97 171.59L364.232 171.081Z" fill="#FF6E8B"/>
<path d="M32.6303 209.688L43.6176 213.393L51.3553 190.338L40.366 186.631L32.6303 209.688Z" fill="#5BC5C9"/>
<path d="M199.597 184.334L191.049 181.451L185.033 199.382L193.579 202.266L199.597 184.334Z" fill="#5BC5C9"/>
<path d="M244.188 29.3678L231.379 28L228.525 54.8755L241.332 56.2433L244.188 29.3678Z" fill="#6CCEFF"/>
<path d="M76.8173 55.0297L65.6263 48.6352L52.2721 72.1142L63.4612 78.5107L76.8173 55.0297Z" fill="#FFACEA"/>
<path d="M39.1695 131.571L49.6096 126.52L39.0617 104.611L28.6216 109.666L39.1695 131.571Z" fill="#6CCEFF"/>
<path d="M168.175 96.7147L160.352 73.6903L149.378 77.4353L157.2 100.464L168.175 96.7147Z" fill="#FF6E8B"/>
<path d="M302.512 143.576L279.954 134.629L275.69 145.437L298.25 154.385L302.512 143.576Z" fill="#FFACEA"/>
<path d="M108.921 164.887L96.2474 162.596L91.4678 189.197L104.143 191.488L108.921 164.887Z" fill="#FF6E8B"/>
<rect x="708" y="156" width="348" height="348" rx="174" fill="#4060FF"/>
<path opacity="0.606" d="M845.337 252.024C837.445 242.622 823.425 241.398 814.024 249.29C804.622 257.182 803.398 271.202 811.29 280.603L918.472 408.289C926.365 417.691 940.384 418.915 949.786 411.022C959.188 403.13 960.412 389.111 952.519 379.709L845.337 252.024Z" fill="white"/>
<path d="M848.114 263.347C848.114 251.073 838.164 241.123 825.89 241.123C813.616 241.123 803.666 251.073 803.666 263.347V396.7C803.666 408.974 813.616 418.924 825.89 418.924C838.164 418.924 848.114 408.974 848.114 396.7V263.347Z" fill="white"/>
<path d="M961.465 263.347C961.465 251.073 951.515 241.123 939.241 241.123C926.967 241.123 917.017 251.073 917.017 263.347V396.7C917.017 408.974 926.967 418.924 939.241 418.924C951.515 418.924 961.465 408.974 961.465 396.7V263.347Z" fill="white"/>
<path d="M752.467 665V636.64H746.947V655.4L735.147 636.64H728.267V665H733.787V644.88L746.667 665H752.467ZM762.294 652.92C762.414 651.12 763.934 649.04 766.694 649.04C769.734 649.04 771.014 650.96 771.094 652.92H762.294ZM771.614 658.04C770.974 659.8 769.614 661.04 767.134 661.04C764.494 661.04 762.294 659.16 762.174 656.56H776.254C776.254 656.48 776.334 655.68 776.334 654.92C776.334 648.6 772.694 644.72 766.614 644.72C761.574 644.72 756.934 648.8 756.934 655.08C756.934 661.72 761.694 665.6 767.094 665.6C771.934 665.6 775.054 662.76 776.054 659.36L771.614 658.04ZM793.169 665H798.249C798.169 664.32 798.049 662.96 798.049 661.44V645.32H792.729V656.76C792.729 659.04 791.369 660.64 789.009 660.64C786.529 660.64 785.409 658.88 785.409 656.68V645.32H780.089V657.76C780.089 662.04 782.809 665.52 787.569 665.52C789.649 665.52 791.929 664.72 793.009 662.88C793.009 663.68 793.089 664.6 793.169 665ZM807.529 652.92C807.649 651.12 809.169 649.04 811.929 649.04C814.969 649.04 816.249 650.96 816.329 652.92H807.529ZM816.849 658.04C816.209 659.8 814.849 661.04 812.369 661.04C809.729 661.04 807.529 659.16 807.409 656.56H821.489C821.489 656.48 821.569 655.68 821.569 654.92C821.569 648.6 817.929 644.72 811.849 644.72C806.809 644.72 802.169 648.8 802.169 655.08C802.169 661.72 806.929 665.6 812.329 665.6C817.169 665.6 820.289 662.76 821.289 659.36L816.849 658.04ZM853.321 665H860.241L848.921 649L860.161 636.64H852.921L841.561 649.48V636.64H836.041V665H841.561V657.12L845.081 653.24L853.321 665ZM868.89 665V645.32H863.57V665H868.89ZM862.93 638.88C862.93 640.64 864.41 642.12 866.21 642.12C868.05 642.12 869.49 640.64 869.49 638.88C869.49 637.04 868.05 635.56 866.21 635.56C864.41 635.56 862.93 637.04 862.93 638.88ZM881.146 639.44H876.346V642.2C876.346 643.96 875.386 645.32 873.306 645.32H872.306V650.04H875.866V659.2C875.866 663 878.266 665.28 882.106 665.28C883.666 665.28 884.626 665 885.106 664.8V660.4C884.826 660.48 884.106 660.56 883.466 660.56C881.946 660.56 881.146 660 881.146 658.28V650.04H885.106V645.32H881.146V639.44ZM910.391 665.64C916.471 665.64 921.311 661.92 921.311 654.96V636.64H915.791V654.56C915.791 658.28 913.751 660.24 910.391 660.24C907.111 660.24 905.031 658.28 905.031 654.56V636.64H899.511V654.96C899.511 661.92 904.351 665.64 910.391 665.64ZM933.685 639.44H928.885V642.2C928.885 643.96 927.925 645.32 925.845 645.32H924.845V650.04H928.405V659.2C928.405 663 930.805 665.28 934.645 665.28C936.205 665.28 937.165 665 937.645 664.8V660.4C937.365 660.48 936.645 660.56 936.005 660.56C934.485 660.56 933.685 660 933.685 658.28V650.04H937.645V645.32H933.685V639.44ZM947.484 665V645.32H942.164V665H947.484ZM941.524 638.88C941.524 640.64 943.004 642.12 944.804 642.12C946.644 642.12 948.084 640.64 948.084 638.88C948.084 637.04 946.644 635.56 944.804 635.56C943.004 635.56 941.524 637.04 941.524 638.88ZM958.5 665V636.04H953.18V665H958.5ZM969.515 665V645.32H964.195V665H969.515ZM963.555 638.88C963.555 640.64 965.035 642.12 966.835 642.12C968.675 642.12 970.115 640.64 970.115 638.88C970.115 637.04 968.675 635.56 966.835 635.56C965.035 635.56 963.555 637.04 963.555 638.88ZM981.771 639.44H976.971V642.2C976.971 643.96 976.011 645.32 973.931 645.32H972.931V650.04H976.491V659.2C976.491 663 978.891 665.28 982.731 665.28C984.291 665.28 985.251 665 985.731 664.8V660.4C985.451 660.48 984.731 660.56 984.091 660.56C982.571 660.56 981.771 660 981.771 658.28V650.04H985.731V645.32H981.771V639.44ZM995.57 665V645.32H990.25V665H995.57ZM989.61 638.88C989.61 640.64 991.09 642.12 992.89 642.12C994.73 642.12 996.17 640.64 996.17 638.88C996.17 637.04 994.73 635.56 992.89 635.56C991.09 635.56 989.61 637.04 989.61 638.88ZM1005.15 652.92C1005.27 651.12 1006.79 649.04 1009.55 649.04C1012.59 649.04 1013.87 650.96 1013.95 652.92H1005.15ZM1014.47 658.04C1013.83 659.8 1012.47 661.04 1009.99 661.04C1007.35 661.04 1005.15 659.16 1005.03 656.56H1019.11C1019.11 656.48 1019.19 655.68 1019.19 654.92C1019.19 648.6 1015.55 644.72 1009.47 644.72C1004.43 644.72 999.786 648.8 999.786 655.08C999.786 661.72 1004.55 665.6 1009.95 665.6C1014.79 665.6 1017.91 662.76 1018.91 659.36L1014.47 658.04ZM1021.7 659.52C1021.94 661.76 1023.98 665.6 1029.9 665.6C1035.06 665.6 1037.54 662.32 1037.54 659.12C1037.54 656.24 1035.58 653.88 1031.7 653.08L1028.9 652.48C1027.82 652.28 1027.1 651.68 1027.1 650.72C1027.1 649.6 1028.22 648.76 1029.62 648.76C1031.86 648.76 1032.7 650.24 1032.86 651.4L1037.3 650.4C1037.06 648.28 1035.18 644.72 1029.58 644.72C1025.34 644.72 1022.22 647.64 1022.22 651.16C1022.22 653.92 1023.94 656.2 1027.74 657.04L1030.34 657.64C1031.86 657.96 1032.46 658.68 1032.46 659.56C1032.46 660.6 1031.62 661.52 1029.86 661.52C1027.54 661.52 1026.38 660.08 1026.26 658.52L1021.7 659.52Z" fill="#4060FF"/>
</g>
<defs>
<clipPath id="clip0_202_332">
<rect width="1764" height="756" fill="white"/>
</clipPath>
</defs>
</svg>
